<?xml version="1.0" encoding="UTF-8"?>
<svg id="Layer_1" xmlns="http://www.w3.org/2000/svg" version="1.1" viewBox="0 0 1400.84 600">
  <!-- Generator: Adobe Illustrator 29.3.1, SVG Export Plug-In . SVG Version: 2.1.0 Build 151)  -->
  <defs>
    <style>
      .st0 {
        fill: #fff;
      }

      .st1 {
        fill: #f05228;
      }

      .st2 {
        fill: none;
        stroke: #f05228;
        stroke-miterlimit: 10;
        stroke-width: 15.2px;
      }
    </style>
  </defs>
  <g>
    <polyline class="st2" points="170.48 207.55 78.71 299.32 170.48 391.08"/>
    <rect class="st2" x="169.47" y="160.95" width="48.5" height="48.5"/>
    <rect class="st2" x="169.47" y="390.02" width="48.5" height="48.5"/>
  </g>
  <g>
    <path class="st0" d="M319.02,307.31l-19.28-33.49h-10.48v33.49h-13.73v-83.74h28.92c6.42,0,11.87,1.13,16.32,3.37,4.46,2.25,7.79,5.26,10,9.04,2.21,3.78,3.32,7.99,3.32,12.65,0,5.46-1.59,10.42-4.76,14.88-3.18,4.46-8.05,7.49-14.64,9.1l20.72,34.7h-16.38ZM289.26,262.85h15.18c5.14,0,9.02-1.28,11.63-3.86,2.61-2.57,3.92-6.02,3.92-10.36s-1.29-7.73-3.86-10.18c-2.57-2.45-6.46-3.67-11.69-3.67h-15.18v28.07Z"/>
    <path class="st0" d="M365.4,223.57v83.74h-13.73v-83.74h13.73Z"/>
    <path class="st0" d="M432.75,223.57v11.21h-35.54v24.7h27.71v11.21h-27.71v36.63h-13.73v-83.74h49.28Z"/>
    <polygon class="st0" points="486.49 223.45 470.58 223.45 440.58 307.31 454.92 307.31 478.54 240.08 502.03 307.31 516.49 307.31 486.49 223.45"/>
    <path class="st0" d="M594.32,322.49l-14.7-15.9c-3.61,1.04-7.59,1.57-11.93,1.57-7.79,0-14.96-1.83-21.51-5.48-6.55-3.65-11.73-8.75-15.54-15.3-3.81-6.54-5.72-13.92-5.72-22.11s1.91-15.54,5.72-22.05,9-11.58,15.54-15.24c6.54-3.65,13.71-5.48,21.51-5.48s15.08,1.83,21.63,5.48c6.54,3.66,11.71,8.73,15.48,15.24,3.77,6.51,5.66,13.86,5.66,22.05,0,7.71-1.67,14.68-5,20.9-3.34,6.23-7.94,11.23-13.8,15l20.12,21.32h-17.47ZM542.69,281.58c2.45,4.7,5.84,8.31,10.18,10.84,4.34,2.53,9.27,3.8,14.82,3.8s10.48-1.27,14.82-3.8c4.34-2.53,7.73-6.14,10.18-10.84,2.45-4.7,3.67-10.14,3.67-16.32s-1.22-11.61-3.67-16.27c-2.45-4.66-5.84-8.23-10.18-10.72-4.34-2.49-9.28-3.73-14.82-3.73s-10.48,1.25-14.82,3.73c-4.34,2.49-7.73,6.07-10.18,10.72-2.45,4.66-3.67,10.08-3.67,16.27s1.22,11.63,3.67,16.32Z"/>
    <polygon class="st0" points="665.28 223.45 649.37 223.45 619.37 307.31 633.71 307.31 657.32 240.08 680.82 307.31 695.28 307.31 665.28 223.45"/>
    <path class="st0" d="M762.38,223.57v11.21h-22.29v72.53h-13.73v-72.53h-22.41v-11.21h58.43Z"/>
    <polygon class="st1" points="848.52 223.45 832.62 223.45 802.62 307.31 816.96 307.31 840.57 240.08 864.07 307.31 878.52 307.31 848.52 223.45"/>
    <path class="st1" d="M905.27,296.22h28.31v11.08h-42.05v-83.74h13.73v72.65Z"/>
    <path class="st1" d="M958.76,223.57v83.74h-13.73v-83.74h13.73Z"/>
    <path class="st1" d="M1054.3,307.31l-32.41-37.47v37.47h-13.73v-83.74h13.73v38.19l32.53-38.19h17.23l-36.38,41.93,36.99,41.81h-17.95Z"/>
    <path class="st1" d="M1151.29,223.57v83.74h-13.73v-36.63h-39.4v36.63h-13.73v-83.74h13.73v35.9h39.4v-35.9h13.73Z"/>
    <polygon class="st1" points="1210.32 223.45 1194.42 223.45 1164.42 307.31 1178.76 307.31 1202.37 240.08 1225.87 307.31 1240.32 307.31 1210.32 223.45"/>
    <path class="st1" d="M1322.13,307.31h-13.73l-41.33-62.53v62.53h-13.73v-83.85h13.73l41.33,62.41v-62.41h13.73v83.85Z"/>
  </g>
  <g>
    <path class="st0" d="M277.82,392.09h16.46v4.99h-22.6v-47.02h6.14v42.03Z"/>
    <path class="st0" d="M347.84,380.89h-29.55c.22,3.64,1.47,6.49,3.74,8.53,2.27,2.05,5.03,3.07,8.26,3.07,2.65,0,4.87-.62,6.64-1.86,1.78-1.24,3.02-2.89,3.74-4.96h6.61c-.99,3.55-2.97,6.44-5.94,8.67-2.97,2.23-6.66,3.34-11.06,3.34-3.51,0-6.64-.79-9.41-2.36-2.77-1.57-4.94-3.81-6.51-6.71s-2.36-6.26-2.36-10.09.76-7.17,2.29-10.05c1.53-2.88,3.68-5.09,6.44-6.64,2.77-1.55,5.95-2.33,9.55-2.33s6.61.76,9.31,2.29c2.7,1.53,4.78,3.63,6.24,6.31,1.46,2.68,2.19,5.7,2.19,9.07,0,1.17-.07,2.41-.2,3.71ZM340.15,369.86c-1.04-1.69-2.44-2.97-4.22-3.85-1.78-.88-3.75-1.32-5.9-1.32-3.1,0-5.75.99-7.93,2.97-2.18,1.98-3.43,4.72-3.74,8.23h23.34c0-2.34-.52-4.35-1.55-6.04Z"/>
    <path class="st0" d="M377.11,365.17v21.79c0,1.8.38,3.07,1.15,3.81s2.09,1.11,3.98,1.11h4.52v5.19h-5.53c-3.42,0-5.98-.79-7.69-2.36-1.71-1.57-2.56-4.16-2.56-7.76v-21.79h-4.79v-5.06h4.79v-9.31h6.14v9.31h9.65v5.06h-9.65Z"/>
    <path class="st0" d="M408.62,350.06h6.81l-6.48,15.31h-4.32l3.98-15.31Z"/>
    <path class="st0" d="M441.4,396.24c-2.25-.97-4.03-2.32-5.33-4.05-1.31-1.73-2.02-3.72-2.16-5.97h6.34c.18,1.84,1.05,3.35,2.6,4.52,1.55,1.17,3.59,1.75,6.1,1.75,2.34,0,4.18-.52,5.53-1.55,1.35-1.03,2.02-2.34,2.02-3.91s-.72-2.82-2.16-3.61c-1.44-.79-3.67-1.56-6.68-2.33-2.74-.72-4.98-1.45-6.71-2.19-1.73-.74-3.22-1.84-4.45-3.31-1.24-1.46-1.86-3.38-1.86-5.77,0-1.89.56-3.62,1.69-5.19,1.12-1.57,2.72-2.82,4.79-3.74,2.07-.92,4.43-1.38,7.08-1.38,4.09,0,7.4,1.04,9.92,3.1,2.52,2.07,3.87,4.9,4.05,8.5h-6.14c-.14-1.93-.91-3.48-2.33-4.65-1.42-1.17-3.32-1.75-5.7-1.75-2.2,0-3.96.47-5.26,1.42s-1.96,2.18-1.96,3.71c0,1.21.39,2.22,1.18,3,.79.79,1.78,1.42,2.97,1.89,1.19.47,2.84,1,4.96,1.59,2.65.72,4.81,1.43,6.48,2.12,1.66.7,3.09,1.74,4.28,3.14,1.19,1.39,1.81,3.22,1.85,5.46,0,2.02-.56,3.85-1.69,5.46-1.12,1.62-2.71,2.89-4.76,3.81s-4.4,1.38-7.05,1.38c-2.83,0-5.38-.48-7.62-1.45Z"/>
    <path class="st0" d="M516.14,368.51c1.53-2.86,3.63-5.07,6.31-6.64,2.68-1.57,5.68-2.36,9.01-2.36,2.88,0,5.55.66,8.03,1.99,2.47,1.33,4.36,3.07,5.67,5.23v-19.56h6.21v49.92h-6.21v-6.95c-1.21,2.2-3.01,4.01-5.4,5.43-2.38,1.42-5.17,2.12-8.37,2.12s-6.26-.81-8.94-2.43c-2.68-1.62-4.78-3.89-6.31-6.81-1.53-2.92-2.29-6.25-2.29-9.98s.76-7.09,2.29-9.95ZM543.47,371.24c-1.12-2.07-2.64-3.65-4.55-4.76-1.91-1.1-4.01-1.65-6.31-1.65s-4.38.54-6.27,1.62-3.4,2.65-4.52,4.72c-1.12,2.07-1.69,4.5-1.69,7.29s.56,5.3,1.69,7.39c1.12,2.09,2.63,3.69,4.52,4.79,1.89,1.1,3.98,1.65,6.27,1.65s4.39-.55,6.31-1.65c1.91-1.1,3.43-2.7,4.55-4.79,1.12-2.09,1.69-4.53,1.69-7.32s-.56-5.22-1.69-7.28Z"/>
    <path class="st0" d="M608.76,380.89h-29.55c.22,3.64,1.47,6.49,3.74,8.53,2.27,2.05,5.03,3.07,8.26,3.07,2.65,0,4.87-.62,6.64-1.86,1.78-1.24,3.02-2.89,3.74-4.96h6.61c-.99,3.55-2.97,6.44-5.94,8.67-2.97,2.23-6.66,3.34-11.06,3.34-3.51,0-6.64-.79-9.41-2.36-2.77-1.57-4.94-3.81-6.51-6.71-1.57-2.9-2.36-6.26-2.36-10.09s.76-7.17,2.29-10.05c1.53-2.88,3.68-5.09,6.44-6.64,2.77-1.55,5.95-2.33,9.55-2.33s6.61.76,9.31,2.29c2.7,1.53,4.78,3.63,6.24,6.31,1.46,2.68,2.19,5.7,2.19,9.07,0,1.17-.07,2.41-.2,3.71ZM601.08,369.86c-1.04-1.69-2.44-2.97-4.22-3.85-1.78-.88-3.75-1.32-5.9-1.32-3.1,0-5.75.99-7.93,2.97-2.18,1.98-3.43,4.72-3.74,8.23h23.34c0-2.34-.52-4.35-1.55-6.04Z"/>
    <path class="st0" d="M636.02,396.24c-2.25-.97-4.03-2.32-5.33-4.05-1.31-1.73-2.02-3.72-2.16-5.97h6.34c.18,1.84,1.05,3.35,2.6,4.52,1.55,1.17,3.59,1.75,6.1,1.75,2.34,0,4.18-.52,5.53-1.55,1.35-1.03,2.02-2.34,2.02-3.91s-.72-2.82-2.16-3.61c-1.44-.79-3.67-1.56-6.68-2.33-2.74-.72-4.98-1.45-6.71-2.19-1.73-.74-3.22-1.84-4.45-3.31-1.24-1.46-1.86-3.38-1.86-5.77,0-1.89.56-3.62,1.69-5.19,1.12-1.57,2.72-2.82,4.79-3.74,2.07-.92,4.43-1.38,7.08-1.38,4.09,0,7.4,1.04,9.92,3.1,2.52,2.07,3.87,4.9,4.05,8.5h-6.14c-.14-1.93-.91-3.48-2.33-4.65-1.42-1.17-3.32-1.75-5.7-1.75-2.2,0-3.96.47-5.26,1.42s-1.96,2.18-1.96,3.71c0,1.21.39,2.22,1.18,3,.79.79,1.78,1.42,2.97,1.89,1.19.47,2.84,1,4.96,1.59,2.65.72,4.81,1.43,6.48,2.12,1.66.7,3.09,1.74,4.28,3.14,1.19,1.39,1.81,3.22,1.85,5.46,0,2.02-.56,3.85-1.69,5.46-1.12,1.62-2.71,2.89-4.76,3.81s-4.4,1.38-7.05,1.38c-2.83,0-5.38-.48-7.62-1.45Z"/>
    <path class="st0" d="M679.46,352.89c-.81-.81-1.21-1.8-1.21-2.97s.4-2.16,1.21-2.97,1.8-1.21,2.97-1.21,2.08.41,2.87,1.21,1.18,1.8,1.18,2.97-.39,2.16-1.18,2.97-1.74,1.21-2.87,1.21-2.16-.41-2.97-1.21ZM685.4,360.11v36.97h-6.14v-36.97h6.14Z"/>
    <path class="st0" d="M732.99,361.6c2.4,1.39,4.19,3.15,5.36,5.26v-6.75h6.21v37.78c0,3.37-.72,6.37-2.16,9.01-1.44,2.63-3.5,4.69-6.17,6.17-2.68,1.48-5.79,2.23-9.34,2.23-4.86,0-8.9-1.15-12.14-3.44s-5.15-5.42-5.73-9.38h6.07c.68,2.25,2.07,4.06,4.18,5.43,2.11,1.37,4.65,2.06,7.62,2.06,3.37,0,6.13-1.06,8.26-3.17,2.14-2.11,3.2-5.08,3.2-8.9v-7.76c-1.21,2.16-3.01,3.96-5.4,5.4-2.38,1.44-5.17,2.16-8.37,2.16s-6.26-.81-8.94-2.43c-2.68-1.62-4.78-3.89-6.31-6.81-1.53-2.92-2.29-6.25-2.29-9.98s.76-7.09,2.29-9.95c1.53-2.86,3.63-5.07,6.31-6.64,2.68-1.57,5.66-2.36,8.94-2.36s5.99.7,8.4,2.09ZM736.66,371.24c-1.12-2.07-2.64-3.65-4.55-4.76-1.91-1.1-4.01-1.65-6.31-1.65s-4.38.54-6.27,1.62c-1.89,1.08-3.4,2.65-4.52,4.72-1.12,2.07-1.69,4.5-1.69,7.29s.56,5.3,1.69,7.39c1.12,2.09,2.63,3.69,4.52,4.79,1.89,1.1,3.98,1.65,6.27,1.65s4.39-.55,6.31-1.65c1.91-1.1,3.43-2.7,4.55-4.79,1.12-2.09,1.69-4.53,1.69-7.32s-.56-5.22-1.69-7.28Z"/>
    <path class="st0" d="M797.38,363.52c2.79,2.72,4.18,6.64,4.18,11.77v21.79h-6.07v-20.91c0-3.69-.92-6.51-2.77-8.47-1.84-1.96-4.36-2.93-7.56-2.93s-5.81,1.01-7.72,3.03c-1.91,2.02-2.87,4.97-2.87,8.84v20.44h-6.14v-36.97h6.14v5.26c1.21-1.89,2.87-3.35,4.96-4.38,2.09-1.03,4.39-1.55,6.91-1.55,4.5,0,8.14,1.36,10.93,4.08Z"/>
    <path class="st0" d="M862.07,396.24c-2.25-.97-4.03-2.32-5.33-4.05-1.31-1.73-2.02-3.72-2.16-5.97h6.34c.18,1.84,1.05,3.35,2.6,4.52,1.55,1.17,3.59,1.75,6.1,1.75,2.34,0,4.18-.52,5.53-1.55,1.35-1.03,2.02-2.34,2.02-3.91s-.72-2.82-2.16-3.61c-1.44-.79-3.67-1.56-6.68-2.33-2.74-.72-4.98-1.45-6.71-2.19-1.73-.74-3.22-1.84-4.45-3.31-1.24-1.46-1.86-3.38-1.86-5.77,0-1.89.56-3.62,1.69-5.19,1.12-1.57,2.72-2.82,4.79-3.74,2.07-.92,4.43-1.38,7.08-1.38,4.09,0,7.4,1.04,9.92,3.1,2.52,2.07,3.87,4.9,4.05,8.5h-6.14c-.14-1.93-.91-3.48-2.33-4.65-1.42-1.17-3.32-1.75-5.7-1.75-2.2,0-3.96.47-5.26,1.42s-1.96,2.18-1.96,3.71c0,1.21.39,2.22,1.18,3,.79.79,1.78,1.42,2.97,1.89,1.19.47,2.84,1,4.96,1.59,2.65.72,4.81,1.43,6.48,2.12,1.66.7,3.09,1.74,4.28,3.14,1.19,1.39,1.81,3.22,1.85,5.46,0,2.02-.56,3.85-1.69,5.46-1.12,1.62-2.71,2.89-4.76,3.81s-4.4,1.38-7.05,1.38c-2.83,0-5.38-.48-7.62-1.45Z"/>
    <path class="st0" d="M912.02,395.32c-2.81-1.57-5.02-3.81-6.61-6.71-1.6-2.9-2.4-6.26-2.4-10.09s.82-7.12,2.46-10.02c1.64-2.9,3.88-5.13,6.71-6.68,2.83-1.55,6-2.33,9.51-2.33s6.68.78,9.51,2.33c2.83,1.55,5.07,3.77,6.71,6.64,1.64,2.88,2.46,6.23,2.46,10.05s-.84,7.19-2.53,10.09c-1.69,2.9-3.97,5.14-6.85,6.71-2.88,1.57-6.07,2.36-9.58,2.36s-6.6-.79-9.41-2.36ZM927.64,390.74c1.93-1.03,3.5-2.59,4.69-4.65,1.19-2.07,1.79-4.59,1.79-7.56s-.59-5.49-1.75-7.55c-1.17-2.07-2.7-3.61-4.59-4.62-1.89-1.01-3.94-1.52-6.14-1.52s-4.31.51-6.17,1.52c-1.87,1.01-3.36,2.55-4.49,4.62-1.12,2.07-1.69,4.59-1.69,7.55s.55,5.55,1.65,7.62c1.1,2.07,2.57,3.61,4.42,4.62,1.84,1.01,3.87,1.52,6.07,1.52s4.27-.52,6.21-1.55Z"/>
    <path class="st0" d="M1014.12,361.23c2.25,1.19,4.02,2.98,5.33,5.36,1.3,2.38,1.96,5.28,1.96,8.7v21.79h-6.07v-20.91c0-3.69-.91-6.51-2.73-8.47-1.82-1.96-4.28-2.93-7.39-2.93s-5.73,1.02-7.62,3.07c-1.89,2.05-2.83,5-2.83,8.87v20.37h-6.07v-20.91c0-3.69-.91-6.51-2.73-8.47-1.82-1.96-4.28-2.93-7.39-2.93s-5.73,1.02-7.62,3.07c-1.89,2.05-2.83,5-2.83,8.87v20.37h-6.14v-36.97h6.14v5.33c1.21-1.93,2.84-3.42,4.89-4.45,2.05-1.03,4.31-1.55,6.78-1.55,3.1,0,5.85.7,8.23,2.09,2.38,1.39,4.16,3.44,5.33,6.14,1.03-2.61,2.74-4.63,5.13-6.07s5.04-2.16,7.96-2.16,5.44.6,7.69,1.79Z"/>
    <path class="st0" d="M1078.47,380.89h-29.55c.22,3.64,1.47,6.49,3.74,8.53,2.27,2.05,5.03,3.07,8.26,3.07,2.65,0,4.87-.62,6.64-1.86,1.78-1.24,3.02-2.89,3.74-4.96h6.61c-.99,3.55-2.97,6.44-5.94,8.67-2.97,2.23-6.66,3.34-11.06,3.34-3.51,0-6.64-.79-9.41-2.36-2.77-1.57-4.94-3.81-6.51-6.71s-2.36-6.26-2.36-10.09.76-7.17,2.29-10.05c1.53-2.88,3.68-5.09,6.44-6.64,2.77-1.55,5.95-2.33,9.55-2.33s6.61.76,9.31,2.29c2.7,1.53,4.78,3.63,6.24,6.31,1.46,2.68,2.19,5.7,2.19,9.07,0,1.17-.07,2.41-.2,3.71ZM1070.78,369.86c-1.04-1.69-2.44-2.97-4.22-3.85-1.78-.88-3.75-1.32-5.9-1.32-3.1,0-5.75.99-7.93,2.97-2.18,1.98-3.43,4.72-3.74,8.23h23.34c0-2.34-.52-4.35-1.55-6.04Z"/>
    <path class="st0" d="M1107.75,365.17v21.79c0,1.8.38,3.07,1.15,3.81s2.09,1.11,3.98,1.11h4.52v5.19h-5.53c-3.42,0-5.98-.79-7.69-2.36-1.71-1.57-2.56-4.16-2.56-7.76v-21.79h-4.79v-5.06h4.79v-9.31h6.14v9.31h9.65v5.06h-9.65Z"/>
    <path class="st0" d="M1164.21,361.23c2.25,1.19,4.01,2.98,5.3,5.36s1.92,5.28,1.92,8.7v21.79h-6.07v-20.91c0-3.69-.92-6.51-2.77-8.47-1.84-1.96-4.36-2.93-7.56-2.93s-5.81,1.01-7.72,3.03c-1.91,2.02-2.87,4.97-2.87,8.84v20.44h-6.14v-49.92h6.14v18.21c1.21-1.89,2.89-3.35,5.03-4.38,2.14-1.03,4.53-1.55,7.18-1.55,2.79,0,5.31.6,7.56,1.79Z"/>
    <path class="st0" d="M1195.17,352.89c-.81-.81-1.21-1.8-1.21-2.97s.4-2.16,1.21-2.97,1.8-1.21,2.97-1.21,2.08.41,2.87,1.21,1.18,1.8,1.18,2.97-.39,2.16-1.18,2.97-1.74,1.21-2.87,1.21-2.16-.41-2.97-1.21ZM1201.11,360.11v36.97h-6.14v-36.97h6.14Z"/>
    <path class="st0" d="M1254,363.52c2.79,2.72,4.18,6.64,4.18,11.77v21.79h-6.07v-20.91c0-3.69-.92-6.51-2.77-8.47-1.84-1.96-4.36-2.93-7.56-2.93s-5.81,1.01-7.72,3.03c-1.91,2.02-2.87,4.97-2.87,8.84v20.44h-6.14v-36.97h6.14v5.26c1.21-1.89,2.87-3.35,4.96-4.38,2.09-1.03,4.39-1.55,6.91-1.55,4.5,0,8.14,1.36,10.93,4.08Z"/>
    <path class="st0" d="M1305.37,361.6c2.4,1.39,4.19,3.15,5.36,5.26v-6.75h6.21v37.78c0,3.37-.72,6.37-2.16,9.01-1.44,2.63-3.5,4.69-6.17,6.17-2.68,1.48-5.79,2.23-9.34,2.23-4.86,0-8.9-1.15-12.14-3.44s-5.15-5.42-5.73-9.38h6.07c.68,2.25,2.07,4.06,4.18,5.43,2.11,1.37,4.65,2.06,7.62,2.06,3.37,0,6.13-1.06,8.26-3.17,2.14-2.11,3.2-5.08,3.2-8.9v-7.76c-1.21,2.16-3.01,3.96-5.4,5.4-2.38,1.44-5.17,2.16-8.37,2.16s-6.26-.81-8.94-2.43c-2.68-1.62-4.78-3.89-6.31-6.81-1.53-2.92-2.29-6.25-2.29-9.98s.76-7.09,2.29-9.95c1.53-2.86,3.63-5.07,6.31-6.64,2.68-1.57,5.66-2.36,8.94-2.36s5.99.7,8.4,2.09ZM1309.04,371.24c-1.12-2.07-2.64-3.65-4.55-4.76-1.91-1.1-4.01-1.65-6.31-1.65s-4.38.54-6.27,1.62-3.4,2.65-4.52,4.72c-1.12,2.07-1.69,4.5-1.69,7.29s.56,5.3,1.69,7.39c1.12,2.09,2.63,3.69,4.52,4.79,1.89,1.1,3.98,1.65,6.27,1.65s4.39-.55,6.31-1.65c1.91-1.1,3.43-2.7,4.55-4.79,1.12-2.09,1.69-4.53,1.69-7.32s-.56-5.22-1.69-7.28Z"/>
  </g>
</svg>