<?xml version="1.0" encoding="UTF-8"?>
<svg id="Layer_1" data-name="Layer 1" xmlns="http://www.w3.org/2000/svg" viewBox="0 0 981.31 271.11">
  <defs>
    <style>
      .cls-1 {
        letter-spacing: .19em;
      }

      .cls-2, .cls-3 {
        fill: #fff;
      }

      .cls-4 {
        fill: #f05228;
      }

      .cls-5 {
        letter-spacing: .19em;
      }

      .cls-6 {
        fill: none;
        stroke: #f05228;
        stroke-miterlimit: 10;
        stroke-width: 9.22px;
      }

      .cls-7 {
        letter-spacing: .22em;
      }

      .cls-8 {
        letter-spacing: .2em;
      }

      .cls-9 {
        letter-spacing: .2em;
      }

      .cls-3 {
        font-family: MyriadPro-Regular, 'Myriad Pro';
        font-size: 57.69px;
      }

      .cls-10 {
        letter-spacing: .13em;
      }
    </style>
  </defs>
  <g>
    <g>
      <polyline class="cls-6" points="93.1 48.58 6.52 135.16 93.1 221.74"/>
      <rect class="cls-6" x="92.16" y="4.61" width="45.76" height="45.76"/>
      <rect class="cls-6" x="92.16" y="220.74" width="45.76" height="45.76"/>
    </g>
    <g>
      <path class="cls-2" d="M224.25,144.9l-14.52-25.23h-7.9v25.23h-10.35v-63.07h21.78c4.84,0,8.94.85,12.3,2.54,3.36,1.69,5.87,3.96,7.53,6.81,1.66,2.84,2.5,6.02,2.5,9.53,0,4.11-1.2,7.85-3.58,11.21-2.39,3.36-6.07,5.64-11.03,6.85l15.61,26.14h-12.34ZM201.83,111.41h11.44c3.87,0,6.79-.97,8.76-2.9,1.97-1.93,2.95-4.54,2.95-7.8s-.97-5.82-2.91-7.67c-1.94-1.84-4.87-2.77-8.8-2.77h-11.44v21.15Z"/>
      <path class="cls-2" d="M259.19,81.83v63.07h-10.35v-63.07h10.35Z"/>
      <path class="cls-2" d="M309.92,81.83v8.44h-26.77v18.6h20.87v8.44h-20.87v27.59h-10.35v-63.07h37.12Z"/>
      <polygon class="cls-2" points="350.39 81.74 338.41 81.74 315.82 144.9 326.61 144.9 344.4 94.26 362.1 144.9 372.99 144.9 350.39 81.74"/>
      <path class="cls-2" d="M431.61,156.34l-11.07-11.98c-2.72.79-5.72,1.18-8.99,1.18-5.87,0-11.27-1.37-16.2-4.13-4.93-2.75-8.84-6.59-11.71-11.53-2.87-4.93-4.31-10.48-4.31-16.65s1.44-11.71,4.31-16.61,6.78-8.73,11.71-11.48c4.93-2.75,10.33-4.13,16.2-4.13s11.36,1.38,16.29,4.13c4.93,2.75,8.82,6.58,11.66,11.48s4.27,10.44,4.27,16.61c0,5.81-1.25,11.06-3.76,15.75-2.51,4.69-5.98,8.46-10.39,11.3l15.16,16.06h-13.16ZM392.72,125.53c1.85,3.54,4.4,6.26,7.67,8.17,3.27,1.91,6.99,2.86,11.16,2.86s7.9-.95,11.16-2.86c3.27-1.9,5.82-4.63,7.67-8.17s2.77-7.64,2.77-12.3-.92-8.74-2.77-12.25c-1.85-3.51-4.4-6.2-7.67-8.08-3.27-1.87-6.99-2.81-11.16-2.81s-7.9.94-11.16,2.81c-3.27,1.88-5.82,4.57-7.67,8.08-1.85,3.51-2.77,7.59-2.77,12.25s.92,8.76,2.77,12.3Z"/>
      <polygon class="cls-2" points="485.06 81.74 473.08 81.74 450.49 144.9 461.29 144.9 479.07 94.26 496.77 144.9 507.66 144.9 485.06 81.74"/>
      <path class="cls-2" d="M558.21,81.83v8.44h-16.79v54.63h-10.35v-54.63h-16.88v-8.44h44.01Z"/>
      <polygon class="cls-4" points="623.09 81.74 611.12 81.74 588.52 144.9 599.32 144.9 617.1 94.26 634.8 144.9 645.69 144.9 623.09 81.74"/>
      <path class="cls-4" d="M665.84,136.55h21.33v8.35h-31.67v-63.07h10.35v54.72Z"/>
      <path class="cls-4" d="M706.13,81.83v63.07h-10.35v-63.07h10.35Z"/>
      <path class="cls-4" d="M778.09,144.9l-24.41-28.22v28.22h-10.35v-63.07h10.35v28.77l24.5-28.77h12.98l-27.41,31.58,27.86,31.49h-13.52Z"/>
      <path class="cls-4" d="M851.15,81.83v63.07h-10.35v-27.59h-29.68v27.59h-10.35v-63.07h10.35v27.04h29.68v-27.04h10.35Z"/>
      <polygon class="cls-4" points="895.62 81.74 883.64 81.74 861.04 144.9 871.84 144.9 889.63 94.26 907.32 144.9 918.21 144.9 895.62 81.74"/>
      <path class="cls-4" d="M979.83,144.9h-10.35l-31.13-47.1v47.1h-10.35v-63.16h10.35l31.13,47.01v-47.01h10.35v63.16Z"/>
    </g>
    <text class="cls-3" transform="translate(186.16 213.48)"><tspan class="cls-5" x="0" y="0">L</tspan><tspan class="cls-8" x="37.96" y="0">e</tspan><tspan class="cls-7" x="78.4" y="0">t</tspan><tspan class="cls-10" x="110.25" y="0">’</tspan><tspan class="cls-9" x="129.57" y="0">s desi</tspan><tspan class="cls-1" x="331.66" y="0">g</tspan><tspan class="cls-9" x="375.11" y="0">n something</tspan></text>
  </g>
  <polygon class="cls-4" points="186.25 87.51 201.97 90.38 195.98 75.68 186.25 87.51"/>
</svg>